<?xml version="1.0" standalone="no"?>
<!DOCTYPE svg PUBLIC "-//W3C//DTD SVG 20010904//EN"
 "http://www.w3.org/TR/2001/REC-SVG-20010904/DTD/svg10.dtd">
<svg version="1.0" xmlns="http://www.w3.org/2000/svg"
 width="300.000000pt" height="300.000000pt" viewBox="0 0 300.000000 300.000000"
 preserveAspectRatio="xMidYMid meet">
<metadata>
Created by potrace 1.14, written by Peter Selinger 2001-2017
</metadata>
<g transform="translate(0.000000,300.000000) scale(0.100000,-0.100000)"
fill="#000000" stroke="none">
<path d="M0 1500 l0 -1500 1500 0 1500 0 0 1500 0 1500 -1500 0 -1500 0 0
-1500z m897 1148 c41 -15 74 -38 114 -77 57 -58 81 -107 95 -198 4 -26 16 -51
33 -67 l27 -26 38 40 c120 127 243 87 345 -110 77 -148 131 -358 116 -459 -18
-132 -116 -235 -262 -277 -10 -2 -13 -42 -13 -154 l0 -150 71 -46 c98 -64 252
-135 397 -185 l122 -41 35 26 35 27 0 139 c0 139 0 140 -24 146 -51 12 -116
107 -116 168 0 71 65 161 123 173 29 6 29 7 22 59 -19 151 81 455 188 571 51
55 84 73 137 73 53 0 86 -18 137 -73 102 -111 207 -422 188 -561 -18 -136
-114 -239 -262 -282 -10 -2 -13 -47 -13 -178 l0 -176 -27 -5 c-157 -32 -277
-98 -381 -208 -159 -170 -292 -296 -361 -342 l-73 -50 251 -5 c209 -4 253 -8
261 -20 16 -25 11 -48 -12 -64 -20 -14 -120 -16 -878 -16 -758 0 -858 2 -878
16 l-22 15 0 360 c0 251 3 367 11 382 17 31 75 95 130 142 52 44 145 94 227
120 l52 17 0 198 0 198 -92 4 c-72 3 -104 9 -142 28 -63 30 -118 85 -153 152
-23 46 -27 65 -27 138 0 73 4 92 27 138 15 29 45 70 66 91 30 30 39 48 44 86
18 128 112 237 237 276 51 15 148 9 207 -13z"/>
<path d="M720 2571 c-109 -36 -170 -115 -170 -223 0 -51 -2 -54 -50 -96 -65
-56 -93 -111 -93 -182 0 -95 71 -191 162 -218 51 -16 371 -16 422 0 90 27 159
121 159 218 0 71 -29 130 -91 182 -47 40 -49 43 -49 95 0 89 -45 165 -123 204
-44 23 -128 33 -167 20z"/>
<path d="M1272 2254 c-44 -46 -44 -46 -35 -98 21 -130 -4 -221 -82 -305 -53
-57 -58 -93 -22 -162 31 -59 93 -104 162 -120 142 -32 275 77 275 224 0 149
-81 375 -166 464 -53 56 -75 56 -132 -3z"/>
<path d="M2326 2160 c-104 -92 -207 -432 -166 -554 53 -162 285 -205 395 -74
62 74 70 155 30 314 -45 178 -144 344 -205 344 -11 0 -35 -14 -54 -30z"/>
<path d="M913 1752 l-83 -3 0 -188 0 -188 98 -6 c112 -6 231 -40 305 -87 26
-16 50 -30 52 -30 3 0 5 50 5 110 0 80 -3 112 -12 114 -137 39 -234 133 -257
249 -7 35 -2 34 -108 29z"/>
<path d="M2065 1491 c-54 -22 -73 -87 -41 -136 34 -51 96 -56 142 -10 35 35
30 63 -18 112 -44 45 -50 47 -83 34z"/>
<path d="M2276 1346 c-9 -35 -59 -91 -96 -106 l-30 -12 0 -108 0 -108 73 29
c39 15 80 30 90 33 16 5 17 19 15 148 -3 137 -4 143 -24 146 -16 2 -23 -4 -28
-22z"/>
<path d="M798 1270 c-127 -20 -261 -92 -348 -187 l-50 -55 0 -314 0 -314 387
0 387 0 -46 48 c-202 205 -34 435 361 492 l81 12 -87 50 c-49 28 -123 76 -166
107 -121 88 -177 120 -248 141 -79 24 -193 32 -271 20z"/>
<path d="M1478 845 c-139 -23 -243 -69 -301 -134 -31 -34 -37 -48 -37 -85 0
-72 79 -159 188 -207 l43 -19 87 44 c48 24 121 68 162 97 93 66 296 267 282
281 -16 16 -163 37 -257 37 -49 -1 -124 -7 -167 -14z"/>
</g>
</svg>
